 0
SECTION
 2
TABLES
 0
TABLE
 2
LAYER
 70
    8
 0
LAYER
 2
0
 70
0
 62
7
 6
CONTINUOUS
 0
LAYER
 2
CUT
 70
0
 62
18
 6
CONTINUOUS
 0
LAYER
 2
SHEETS
 70
0
 62
6
 6
CONTINUOUS
 0
LAYER
 2
SHEET_NAMES
 70
0
 62
7
 6
CONTINUOUS
 0
LAYER
 2
PARTSOLIDS
 70
0
 62
147
 6
CONTINUOUS
 0
LAYER
 2
UNITS
 70
0
 62
7
 6
CONTINUOUS
 0
LAYER
 2
CUT_ORDER
 70
0
 62
7
 6
CONTINUOUS
 0
LAYER
 2
DIM
 70
0
 62
7
 6
CONTINUOUS
 0
ENDTAB
 0
ENDSEC
 0
SECTION
 2
ENTITIES
 0
POLYLINE
 8
0
 62
256
 66
 1
 10
0.0
 20
0.0
 30
0.0
 70
1
 0
VERTEX
 8
0
 10
-1385.220466
 20
1211.863181
 30
0.0
 42
1.000000
 0
VERTEX
 8
0
 10
-1281.871658
 20
1377.223489
 30
0.0
 42
1.000000
 0
SEQEND
 8
0
 0
POLYLINE
 8
0
 62
256
 66
 1
 10
0.0
 20
0.0
 30
0.0
 70
1
 0
VERTEX
 8
0
 10
-1377.800542
 20
1223.735219
 30
0.0
 42
-1.000000
 0
VERTEX
 8
0
 10
-1289.291582
 20
1365.351451
 30
0.0
 42
-1.000000
 0
SEQEND
 8
0
 0
POLYLINE
 8
0
 62
256
 66
 1
 10
0.0
 20
0.0
 30
0.0
 70
1
 0
VERTEX
 8
0
 10
-1385.220466
 20
1410.606212
 30
0.0
 42
1.000000
 0
VERTEX
 8
0
 10
-1281.871658
 20
1575.966521
 30
0.0
 42
1.000000
 0
SEQEND
 8
0
 0
POLYLINE
 8
0
 62
256
 66
 1
 10
0.0
 20
0.0
 30
0.0
 70
1
 0
VERTEX
 8
0
 10
-1377.800542
 20
1422.478250
 30
0.0
 42
-1.000000
 0
VERTEX
 8
0
 10
-1289.291582
 20
1564.094483
 30
0.0
 42
-1.000000
 0
SEQEND
 8
0
 0
POLYLINE
 8
0
 62
256
 66
 1
 10
0.0
 20
0.0
 30
0.0
 70
1
 0
VERTEX
 8
0
 10
-1396.864079
 20
1617.876982
 30
0.0
 42
1.000000
 0
VERTEX
 8
0
 10
-1269.985106
 20
1765.953767
 30
0.0
 42
1.000000
 0
SEQEND
 8
0
 0
POLYLINE
 8
0
 62
256
 66
 1
 10
0.0
 20
0.0
 30
0.0
 70
1
 0
VERTEX
 8
0
 10
-1253.399336
 20
1757.958181
 30
0.0
 42
1.000000
 0
VERTEX
 8
0
 10
-1150.050527
 20
1923.318489
 30
0.0
 42
1.000000
 0
SEQEND
 8
0
 0
POLYLINE
 8
0
 62
256
 66
 1
 10
0.0
 20
0.0
 30
0.0
 70
1
 0
VERTEX
 8
0
 10
-1245.979412
 20
1769.830219
 30
0.0
 42
-1.000000
 0
VERTEX
 8
0
 10
-1157.470451
 20
1911.446451
 30
0.0
 42
-1.000000
 0
SEQEND
 8
0
 0
POLYLINE
 8
0
 62
256
 66
 1
 10
0.0
 20
0.0
 30
0.0
 70
1
 0
VERTEX
 8
0
 10
-1220.579222
 20
1311.888867
 30
0.0
 42
1.000000
 0
VERTEX
 8
0
 10
-1093.700250
 20
1459.965652
 30
0.0
 42
1.000000
 0
SEQEND
 8
0
 0
POLYLINE
 8
0
 62
256
 66
 1
 10
0.0
 20
0.0
 30
0.0
 70
1
 0
VERTEX
 8
0
 10
-1212.105616
 20
1507.788181
 30
0.0
 42
1.000000
 0
VERTEX
 8
0
 10
-1108.756807
 20
1673.148489
 30
0.0
 42
1.000000
 0
SEQEND
 8
0
 0
POLYLINE
 8
0
 62
256
 66
 1
 10
0.0
 20
0.0
 30
0.0
 70
1
 0
VERTEX
 8
0
 10
-1204.685691
 20
1519.660219
 30
0.0
 42
-1.000000
 0
VERTEX
 8
0
 10
-1116.176731
 20
1661.276451
 30
0.0
 42
-1.000000
 0
SEQEND
 8
0
 0
POLYLINE
 8
0
 62
256
 66
 1
 10
0.0
 20
0.0
 30
0.0
 70
1
 0
VERTEX
 8
0
 10
-1081.581572
 20
1657.615324
 30
0.0
 42
1.000000
 0
VERTEX
 8
0
 10
-978.232764
 20
1822.975632
 30
0.0
 42
1.000000
 0
SEQEND
 8
0
 0
POLYLINE
 8
0
 62
256
 66
 1
 10
0.0
 20
0.0
 30
0.0
 70
1
 0
VERTEX
 8
0
 10
-1074.161648
 20
1669.487362
 30
0.0
 42
-1.000000
 0
VERTEX
 8
0
 10
-985.652688
 20
1811.103595
 30
0.0
 42
-1.000000
 0
SEQEND
 8
0
 0
POLYLINE
 8
0
 62
256
 66
 1
 10
0.0
 20
0.0
 30
0.0
 70
1
 0
VERTEX
 8
0
 10
-1035.447482
 20
1400.188181
 30
0.0
 42
1.000000
 0
VERTEX
 8
0
 10
-932.098673
 20
1565.548489
 30
0.0
 42
1.000000
 0
SEQEND
 8
0
 0
POLYLINE
 8
0
 62
256
 66
 1
 10
0.0
 20
0.0
 30
0.0
 70
1
 0
VERTEX
 8
0
 10
-1028.027558
 20
1412.060219
 30
0.0
 42
-1.000000
 0
VERTEX
 8
0
 10
-939.518597
 20
1553.676451
 30
0.0
 42
-1.000000
 0
SEQEND
 8
0
 0
POLYLINE
 8
0
 62
256
 66
 1
 10
0.0
 20
0.0
 30
0.0
 70
1
 0
VERTEX
 8
0
 10
-984.201863
 20
1220.403867
 30
0.0
 42
1.000000
 0
VERTEX
 8
0
 10
-857.322891
 20
1368.480652
 30
0.0
 42
1.000000
 0
SEQEND
 8
0
 0
POLYLINE
 8
0
 62
256
 66
 1
 10
0.0
 20
0.0
 30
0.0
 70
1
 0
VERTEX
 8
0
 10
-922.569199
 20
1563.523399
 30
0.0
 42
1.000000
 0
VERTEX
 8
0
 10
-795.690226
 20
1711.600184
 30
0.0
 42
1.000000
 0
SEQEND
 8
0
 0
POLYLINE
 8
0
 62
256
 66
 1
 10
0.0
 20
0.0
 30
0.0
 70
1
 0
VERTEX
 8
0
 10
-856.864079
 20
960.403867
 30
0.0
 42
1.000000
 0
VERTEX
 8
0
 10
-729.985106
 20
1108.480652
 30
0.0
 42
1.000000
 0
SEQEND
 8
0
 0
POLYLINE
 8
0
 62
256
 66
 1
 10
0.0
 20
0.0
 30
0.0
 70
1
 0
VERTEX
 8
0
 10
-852.451505
 20
1368.915721
 30
0.0
 42
1.000000
 0
VERTEX
 8
0
 10
-725.572533
 20
1516.992506
 30
0.0
 42
1.000000
 0
SEQEND
 8
0
 0
POLYLINE
 8
0
 62
256
 66
 1
 10
0.0
 20
0.0
 30
0.0
 70
1
 0
VERTEX
 8
0
 10
-1430.266565
 20
1828.313209
 30
0.0
 42
1.000000
 0
VERTEX
 8
0
 10
-1329.670591
 20
1845.178976
 30
0.0
 42
1.000000
 0
SEQEND
 8
0
 0
POLYLINE
 8
0
 62
256
 66
 1
 10
0.0
 20
0.0
 30
0.0
 70
1
 0
VERTEX
 8
0
 10
-1410.541848
 20
1831.620225
 30
0.0
 42
-1.000000
 0
VERTEX
 8
0
 10
-1349.395307
 20
1841.871960
 30
0.0
 42
-1.000000
 0
SEQEND
 8
0
 0
POLYLINE
 8
0
 62
256
 66
 1
 10
0.0
 20
0.0
 30
0.0
 70
1
 0
VERTEX
 8
0
 10
-1368.411688
 20
1333.137027
 30
0.0
 42
1.000000
 0
VERTEX
 8
0
 10
-1351.545921
 20
1232.541053
 30
0.0
 42
1.000000
 0
SEQEND
 8
0
 0
POLYLINE
 8
0
 62
256
 66
 1
 10
0.0
 20
0.0
 30
0.0
 70
1
 0
VERTEX
 8
0
 10
-1365.104672
 20
1313.412311
 30
0.0
 42
-1.000000
 0
VERTEX
 8
0
 10
-1354.852937
 20
1252.265770
 30
0.0
 42
-1.000000
 0
SEQEND
 8
0
 0
POLYLINE
 8
0
 62
256
 66
 1
 10
0.0
 20
0.0
 30
0.0
 70
1
 0
VERTEX
 8
0
 10
-1367.206589
 20
1529.460667
 30
0.0
 42
1.000000
 0
VERTEX
 8
0
 10
-1350.340822
 20
1428.864693
 30
0.0
 42
1.000000
 0
SEQEND
 8
0
 0
POLYLINE
 8
0
 62
256
 66
 1
 10
0.0
 20
0.0
 30
0.0
 70
1
 0
VERTEX
 8
0
 10
-1363.899573
 20
1509.735950
 30
0.0
 42
-1.000000
 0
VERTEX
 8
0
 10
-1353.647838
 20
1448.589409
 30
0.0
 42
-1.000000
 0
SEQEND
 8
0
 0
POLYLINE
 8
0
 62
256
 66
 1
 10
0.0
 20
0.0
 30
0.0
 70
1
 0
VERTEX
 8
0
 10
-1236.580539
 20
1879.214225
 30
0.0
 42
1.000000
 0
VERTEX
 8
0
 10
-1219.714773
 20
1778.618251
 30
0.0
 42
1.000000
 0
SEQEND
 8
0
 0
POLYLINE
 8
0
 62
256
 66
 1
 10
0.0
 20
0.0
 30
0.0
 70
1
 0
VERTEX
 8
0
 10
-1233.273524
 20
1859.489509
 30
0.0
 42
-1.000000
 0
VERTEX
 8
0
 10
-1223.021788
 20
1798.342968
 30
0.0
 42
-1.000000
 0
SEQEND
 8
0
 0
POLYLINE
 8
0
 62
256
 66
 1
 10
0.0
 20
0.0
 30
0.0
 70
1
 0
VERTEX
 8
0
 10
-1194.634324
 20
1627.535258
 30
0.0
 42
1.000000
 0
VERTEX
 8
0
 10
-1177.768557
 20
1526.939284
 30
0.0
 42
1.000000
 0
SEQEND
 8
0
 0
POLYLINE
 8
0
 62
256
 66
 1
 10
0.0
 20
0.0
 30
0.0
 70
1
 0
VERTEX
 8
0
 10
-1191.327308
 20
1607.810542
 30
0.0
 42
-1.000000
 0
VERTEX
 8
0
 10
-1181.075572
 20
1546.664001
 30
0.0
 42
-1.000000
 0
SEQEND
 8
0
 0
POLYLINE
 8
0
 62
256
 66
 1
 10
0.0
 20
0.0
 30
0.0
 70
1
 0
VERTEX
 8
0
 10
-1081.304473
 20
1197.701392
 30
0.0
 42
1.000000
 0
VERTEX
 8
0
 10
-1098.170240
 20
1298.297366
 30
0.0
 42
1.000000
 0
SEQEND
 8
0
 0
POLYLINE
 8
0
 62
256
 66
 1
 10
0.0
 20
0.0
 30
0.0
 70
1
 0
VERTEX
 8
0
 10
-1084.611488
 20
1217.426109
 30
0.0
 42
-1.000000
 0
VERTEX
 8
0
 10
-1094.863224
 20
1278.572649
 30
0.0
 42
-1.000000
 0
SEQEND
 8
0
 0
POLYLINE
 8
0
 62
256
 66
 1
 10
0.0
 20
0.0
 30
0.0
 70
1
 0
VERTEX
 8
0
 10
-1046.972178
 20
1676.546392
 30
0.0
 42
1.000000
 0
VERTEX
 8
0
 10
-1063.837945
 20
1777.142366
 30
0.0
 42
1.000000
 0
SEQEND
 8
0
 0
POLYLINE
 8
0
 62
256
 66
 1
 10
0.0
 20
0.0
 30
0.0
 70
1
 0
VERTEX
 8
0
 10
-1050.279194
 20
1696.271109
 30
0.0
 42
-1.000000
 0
VERTEX
 8
0
 10
-1060.530929
 20
1757.417649
 30
0.0
 42
-1.000000
 0
SEQEND
 8
0
 0
POLYLINE
 8
0
 62
256
 66
 1
 10
0.0
 20
0.0
 30
0.0
 70
1
 0
VERTEX
 8
0
 10
-1001.762644
 20
1420.996392
 30
0.0
 42
1.000000
 0
VERTEX
 8
0
 10
-1018.628411
 20
1521.592366
 30
0.0
 42
1.000000
 0
SEQEND
 8
0
 0
POLYLINE
 8
0
 62
256
 66
 1
 10
0.0
 20
0.0
 30
0.0
 70
1
 0
VERTEX
 8
0
 10
-1005.069660
 20
1440.721109
 30
0.0
 42
-1.000000
 0
VERTEX
 8
0
 10
-1015.321395
 20
1501.867649
 30
0.0
 42
-1.000000
 0
SEQEND
 8
0
 0
POLYLINE
 8
0
 62
256
 66
 1
 10
0.0
 20
0.0
 30
0.0
 70
1
 0
VERTEX
 8
0
 10
-890.147532
 20
1766.661392
 30
0.0
 42
1.000000
 0
VERTEX
 8
0
 10
-907.013299
 20
1867.257366
 30
0.0
 42
1.000000
 0
SEQEND
 8
0
 0
POLYLINE
 8
0
 62
256
 66
 1
 10
0.0
 20
0.0
 30
0.0
 70
1
 0
VERTEX
 8
0
 10
-893.454548
 20
1786.386109
 30
0.0
 42
-1.000000
 0
VERTEX
 8
0
 10
-903.706284
 20
1847.532649
 30
0.0
 42
-1.000000
 0
SEQEND
 8
0
 0
POLYLINE
 8
0
 62
256
 66
 1
 10
0.0
 20
0.0
 30
0.0
 70
1
 0
VERTEX
 8
0
 10
-804.089251
 20
1136.230352
 30
0.0
 42
1.000000
 0
VERTEX
 8
0
 10
-820.955018
 20
1236.826326
 30
0.0
 42
1.000000
 0
SEQEND
 8
0
 0
POLYLINE
 8
0
 62
256
 66
 1
 10
0.0
 20
0.0
 30
0.0
 70
1
 0
VERTEX
 8
0
 10
-807.396266
 20
1155.955068
 30
0.0
 42
-1.000000
 0
VERTEX
 8
0
 10
-817.648002
 20
1217.101609
 30
0.0
 42
-1.000000
 0
SEQEND
 8
0
 0
POLYLINE
 8
0
 62
256
 66
 1
 10
0.0
 20
0.0
 30
0.0
 70
1
 0
VERTEX
 8
0
 10
-789.090788
 20
1726.311392
 30
0.0
 42
1.000000
 0
VERTEX
 8
0
 10
-805.956555
 20
1826.907366
 30
0.0
 42
1.000000
 0
SEQEND
 8
0
 0
POLYLINE
 8
0
 62
256
 66
 1
 10
0.0
 20
0.0
 30
0.0
 70
1
 0
VERTEX
 8
0
 10
-792.397804
 20
1746.036109
 30
0.0
 42
-1.000000
 0
VERTEX
 8
0
 10
-802.649539
 20
1807.182649
 30
0.0
 42
-1.000000
 0
SEQEND
 8
0
 0
POLYLINE
 8
0
 62
256
 66
 1
 10
0.0
 20
0.0
 30
0.0
 70
1
 0
VERTEX
 8
0
 10
-760.607742
 20
1232.474449
 30
0.0
 42
1.000000
 0
VERTEX
 8
0
 10
-777.473509
 20
1333.070423
 30
0.0
 42
1.000000
 0
SEQEND
 8
0
 0
POLYLINE
 8
0
 62
256
 66
 1
 10
0.0
 20
0.0
 30
0.0
 70
1
 0
VERTEX
 8
0
 10
-763.914758
 20
1252.199166
 30
0.0
 42
-1.000000
 0
VERTEX
 8
0
 10
-774.166493
 20
1313.345707
 30
0.0
 42
-1.000000
 0
SEQEND
 8
0
 0
POLYLINE
 8
0
 62
256
 66
 1
 10
0.0
 20
0.0
 30
0.0
 70
1
 0
VERTEX
 8
0
 10
-757.140245
 20
1177.738194
 30
0.0
 42
1.000000
 0
VERTEX
 8
0
 10
-656.544271
 20
1194.603961
 30
0.0
 42
1.000000
 0
SEQEND
 8
0
 0
POLYLINE
 8
0
 62
256
 66
 1
 10
0.0
 20
0.0
 30
0.0
 70
1
 0
VERTEX
 8
0
 10
-737.415528
 20
1181.045210
 30
0.0
 42
-1.000000
 0
VERTEX
 8
0
 10
-676.268987
 20
1191.296945
 30
0.0
 42
-1.000000
 0
SEQEND
 8
0
 0
POLYLINE
 8
0
 62
256
 66
 1
 10
0.0
 20
0.0
 30
0.0
 70
1
 0
VERTEX
 8
0
 10
-765.953144
 20
1567.788194
 30
0.0
 42
1.000000
 0
VERTEX
 8
0
 10
-665.357170
 20
1584.653961
 30
0.0
 42
1.000000
 0
SEQEND
 8
0
 0
POLYLINE
 8
0
 62
256
 66
 1
 10
0.0
 20
0.0
 30
0.0
 70
1
 0
VERTEX
 8
0
 10
-746.228428
 20
1571.095210
 30
0.0
 42
-1.000000
 0
VERTEX
 8
0
 10
-685.081887
 20
1581.346945
 30
0.0
 42
-1.000000
 0
SEQEND
 8
0
 0
POLYLINE
 8
0
 62
256
 66
 1
 10
0.0
 20
0.0
 30
0.0
 70
1
 0
VERTEX
 8
0
 10
-664.758804
 20
1277.081392
 30
0.0
 42
1.000000
 0
VERTEX
 8
0
 10
-681.624570
 20
1377.677366
 30
0.0
 42
1.000000
 0
SEQEND
 8
0
 0
POLYLINE
 8
0
 62
256
 66
 1
 10
0.0
 20
0.0
 30
0.0
 70
1
 0
VERTEX
 8
0
 10
-668.065819
 20
1296.806109
 30
0.0
 42
-1.000000
 0
VERTEX
 8
0
 10
-678.317555
 20
1357.952649
 30
0.0
 42
-1.000000
 0
SEQEND
 8
0
 0
POLYLINE
 8
0
 62
256
 66
 1
 10
0.0
 20
0.0
 30
0.0
 70
1
 0
VERTEX
 8
0
 10
-687.886626
 20
1418.460792
 30
0.0
 42
1.000000
 0
VERTEX
 8
0
 10
-587.290652
 20
1435.326559
 30
0.0
 42
1.000000
 0
SEQEND
 8
0
 0
POLYLINE
 8
0
 62
256
 66
 1
 10
0.0
 20
0.0
 30
0.0
 70
1
 0
VERTEX
 8
0
 10
-668.161909
 20
1421.767808
 30
0.0
 42
-1.000000
 0
VERTEX
 8
0
 10
-607.015369
 20
1432.019543
 30
0.0
 42
-1.000000
 0
SEQEND
 8
0
 0
POLYLINE
 8
0
 62
256
 66
 1
 10
0.0
 20
0.0
 30
0.0
 70
1
 0
VERTEX
 8
0
 10
-670.070175
 20
1522.472501
 30
0.0
 42
1.000000
 0
VERTEX
 8
0
 10
-569.474201
 20
1539.338268
 30
0.0
 42
1.000000
 0
SEQEND
 8
0
 0
POLYLINE
 8
0
 62
256
 66
 1
 10
0.0
 20
0.0
 30
0.0
 70
1
 0
VERTEX
 8
0
 10
-650.345458
 20
1525.779517
 30
0.0
 42
-1.000000
 0
VERTEX
 8
0
 10
-589.198917
 20
1536.031252
 30
0.0
 42
-1.000000
 0
SEQEND
 8
0
 0
POLYLINE
 8
0
 62
256
 66
 1
 10
0.0
 20
0.0
 30
0.0
 70
1
 0
VERTEX
 8
0
 10
-981.170453
 20
1837.083156
 30
0.0
 42
1.000000
 0
VERTEX
 8
0
 10
-998.036219
 20
1937.679130
 30
0.0
 42
1.000000
 0
SEQEND
 8
0
 0
POLYLINE
 8
0
 62
256
 66
 1
 10
0.0
 20
0.0
 30
0.0
 70
1
 0
VERTEX
 8
0
 10
-984.477468
 20
1856.807872
 30
0.0
 42
-1.000000
 0
VERTEX
 8
0
 10
-994.729204
 20
1917.954413
 30
0.0
 42
-1.000000
 0
SEQEND
 8
0
 0
ENDSEC
 0
EOF
